<svg width="28" height="28" viewBox="0 0 28 28" fill="none" xmlns="http://www.w3.org/2000/svg">
<g id="icons / 40x40 / instagram" opacity="0.8">
<path id="Vector" d="M25.1277 9.41145C25.114 8.47139 24.9398 7.53878 24.6065 6.65957C24.0231 5.15821 22.8352 3.97103 21.3313 3.38985C20.4618 3.06325 19.5426 2.88816 18.6122 2.86829C17.4155 2.81489 17.0361 2.79999 13.9986 2.79999C10.961 2.79999 10.5716 2.79999 9.38372 2.86829C8.45454 2.88816 7.5353 3.06325 6.66582 3.38985C5.16196 3.97103 3.97279 5.15821 3.39065 6.65957C3.06351 7.52761 2.88688 8.44532 2.86946 9.37296C2.81598 10.5688 2.7998 10.9476 2.7998 13.9801C2.7998 17.0127 2.7998 17.4001 2.86946 18.5873C2.88812 19.5162 3.06351 20.4326 3.39065 21.3032C3.97404 22.8033 5.16195 23.9905 6.66706 24.5716C7.53281 24.9094 8.45205 25.1006 9.38497 25.1304C10.5828 25.1838 10.9622 25.2 13.9998 25.2C17.0374 25.2 17.4267 25.2 18.6146 25.1304C19.5438 25.1118 20.4631 24.9367 21.3338 24.6101C22.8377 24.0277 24.0256 22.8405 24.609 21.3404C24.9361 20.4711 25.1115 19.5547 25.1301 18.6245C25.1836 17.4299 25.1998 17.0511 25.1998 14.0174C25.1973 10.9848 25.1973 10.5999 25.1277 9.41145ZM13.9911 19.7149C10.8142 19.7149 8.24059 17.1455 8.24059 13.9739C8.24059 10.8023 10.8142 8.23296 13.9911 8.23296C17.1655 8.23296 19.7416 10.8023 19.7416 13.9739C19.7416 17.1455 17.1655 19.7149 13.9911 19.7149ZM19.9705 9.3593C19.2279 9.3593 18.6296 8.76074 18.6296 8.02061C18.6296 7.28049 19.2279 6.68193 19.9705 6.68193C20.7106 6.68193 21.3102 7.28049 21.3102 8.02061C21.3102 8.76074 20.7106 9.3593 19.9705 9.3593Z" fill="#FCF9F9"/>
<path id="Vector_2" d="M13.9932 17.479C15.9282 17.479 17.4967 15.9104 17.4967 13.9755C17.4967 12.0406 15.9282 10.472 13.9932 10.472C12.0583 10.472 10.4897 12.0406 10.4897 13.9755C10.4897 15.9104 12.0583 17.479 13.9932 17.479Z" fill="#FCF9F9"/>
</g>
</svg>
